<svg height="512" viewBox="0 0 128 128" width="512" xmlns="http://www.w3.org/2000/svg"><g><g><path d="m64 78.38v28.75l-24.896 14.37-24.897-14.37v-28.75l24.897-14.38z" fill="#fd637b"/><path d="m39.1 92.75v28.75l-24.89-14.37v-28.75z" fill="#62e0da"/><path d="m64 78.38v28.75l-24.9 14.37v-28.75z" fill="#fdd82e"/></g><g><path d="m64 20.88v28.75l-24.896 14.37-24.897-14.37v-28.75l24.897-14.38z" fill="#62e0da"/><path d="m39.1 35.25v28.75l-24.89-14.37v-28.75z" fill="#fdd82e"/><path d="m64 20.88v28.75l-24.9 14.37v-28.75z" fill="#fd637b"/></g><g><path d="m113.793 49.63v28.75l-24.897 14.37-24.896-14.37v-28.75l24.896-14.38z" fill="#fdd82e"/><path d="m113.79 49.63v28.75l-24.89 14.37v-28.75z" fill="#fd637b"/><path d="m88.9 64v28.75l-24.9-14.37v-28.75z" fill="#62e0da"/></g></g></svg>